[center][img]http://img850.imageshack.us/img850/440/justgowithitwallpaper50.jpg[/img]



[img]http://leetleech.org/images/48874973695367351744.png[/img]


Format                           : AVI
Format/Info                      : Audio Video Interleave
File size                        : 1.46 GiB
Duration                         : 1h 49mn
Overall bit rate                 : 1 905 Kbps
Writing library                  : VirtualDub build 32839/release

Video
ID                               : 0
Format                           : MPEG-4 Visual
Format profile                   : Advanced Simple@L5
Format settings, BVOP            : Yes
Format settings, QPel            : No
Format settings, GMC             : No warppoints
Format settings, Matrix          : Custom
Codec ID                         : XVID
Codec ID/Hint                    : XviD
Duration                         : 1h 49mn
Bit rate                         : 1 767 Kbps
Width                            : 720 pixels
Height                           : 320 pixels
Display aspect ratio             : 2.25:1
Frame rate                       : 25.000 fps
Color space                      : YUV
Chroma subsampling               : 4:2:0
Bit depth                        : 8 bits
Scan type                        : Progressive
Bits/(Pixel*Frame)               : 0.307
Stream size                      : 1.35 GiB (93%)
Writing library                  : XviD 1.2.1 (UTC 2008-12-04)

Audio
ID                               : 1
Format                           : MPEG Audio
Format version                   : Version 1
Format profile                   : Layer 3
Codec ID                         : 55
Codec ID/Hint                    : MP3
Duration                         : 1h 49mn
Bit rate mode                    : Constant
Bit rate                         : 128 Kbps
Channel(s)                       : 2 channels
Sampling rate                    : 44.1 KHz
Video delay                      : 4ms
Stream size                      : 100 MiB (7%)
Alignment                        : Split accross interleaves
Interleave, duration             : 40 ms (1.00 video frame)
Interleave, preload duration     : 500 ms




[url]http://www.imdb.com/title/tt1564367/[/url]




[IMG]http://leetleech.org/images/89524873606771859129.png[/IMG]


Users: 6.1/10 (3,921 votes) 51 reviews | Critics: 101 reviews Metascore: 33/100 (based on 31 reviews from Metacritic.com)

On a weekend trip to Hawaii, a plastic surgeon convinces his loyal assistant to pose as his soon-to-be-divorced wife in order to cover up a careless lie he told to his much-younger girlfriend.
Director:
Dennis Dugan
Writers:
Allan Loeb (screenplay), Timothy Dowling (screenplay), and 4 more credits »
Stars:
Adam Sandler, Jennifer Aniston and Brooklyn Decker 



[img]http://leetleech.org/images/95521316153253938506.png[/img]




[img]http://img713.imageshack.us/img713/3071/vlcsnap2011030506h22m38.png[/img]

[img]http://img707.imageshack.us/img707/116/vlcsnap2011030506h23m40.png[/img]

[img]http://img219.imageshack.us/img219/9684/vlcsnap2011030506h19m30.png[/img]


VIDEO: TaRiQ786...Thanks 

AUDIO: Imagine ......Thanks 

Big thanks again goes out to tariq for sorting this one out for everyone.I just ran a few filters through it,its definetly watchable for now ...

Enjoy !


Greetz to Imagine ,Flawl3ss ,Santi ,Vision ,Kingdom, BDK, TOXiCiNK, THC, Ez, Rx,





[img]http://img411.imageshack.us/img411/6898/sig1n.jpg[/img]




